{"title":"True.Detective.S02E08.HDTV.480p.x264.AAC-VYTO [P2PDL]","uid":12213900,"size":316013871,"categoryP":"video","categoryS":"hd___tv_shows","magnet":"?xt=urn:btih:7b5010868c4c96f6cd9a2b3c4a9e75b43adcc35a&amp;dn=True.Detective.S02E08.HDTV.480p.x264.AAC-VYTO+%5BP2PDL%5D&amp;tr=udp%3A%2F%2Ftracker.openbittorrent.com%3A80&amp;tr=udp%3A%2F%2Fopen.demonii.com%3A1337&amp;tr=udp%3A%2F%2Ftracker.coppersurfer.tk%3A6969&amp;tr=udp%3A%2F%2Fexodus.desync.com%3A6969","seeders":9,"leechers":4,"uploader":"ValidusVyto","files":6,"time":1439193545,"description":"____    ____ ____    ____ .___________.  ______   \n     /   /      /   / |           | /  __    \n    /   /      /   /  `---|  |----`|  |  |  | \n        /     _    _/       |  |     |  |  |  | \n       /        |  |         |  |     |  `--'  | \n    __/         |__|         |__|      ______/  \n                                                  \nPresenting Small Encodes with quality for years!\n                                                                                                   \n                                                                                                   \n\nTrue.Detective.S02E08.HDTV.480p.x264.AAC-VYTO\n\n\nGeneral\nFormat                         : MPEG-4\nFile size                      : 296 MiB\nDuration                       : 1h 26mn\nOverall bit rate               : 477 Kbps\n\nVideo\nFormat                         : AVC\nBit rate                       : 426 Kbps\nWidth                          : 720 pixels\nHeight                         : 400 pixels\nDisplay aspect ratio           : 16:9\nFrame rate mode                : Constant\nFrame rate                     : 23.976 fps\nBit depth                      : 8 bits\nStream size                    : 265 MiB (89%)\nWriting library                : x264 core 148 r2579\n\nAudio\nFormat                         : AAC\nBit rate mode                  : Variable\nBit rate                       : 48.0 Kbps\nChannel(s)                     : 2 channels\nChannel positions              : Front: L R\nSampling rate                  : 48.0 KHz\nStream size                    : 29.8 MiB (10%)\n\nScreenshots:\n &lt;a href=&quot;\nhttp://ititli.com/ka&quot; rel=&quot;nofollow&quot; target=&quot;_NEW&quot;&gt;\nhttp://ititli.com/ka&lt;/a&gt; &lt;a href=&quot;\nhttp://ititli.com/kb&quot; rel=&quot;nofollow&quot; target=&quot;_NEW&quot;&gt;\nhttp://ititli.com/kb&lt;/a&gt; &lt;a href=&quot;\nhttp://ititli.com/kz&quot; rel=&quot;nofollow&quot; target=&quot;_NEW&quot;&gt;\nhttp://ititli.com/kz&lt;/a&gt; &lt;a href=&quot;\nhttp://ititli.com/kI&quot; rel=&quot;nofollow&quot; target=&quot;_NEW&quot;&gt;\nhttp://ititli.com/kI&lt;/a&gt; &lt;a href=&quot;\nhttp://ititli.com/kO&quot; rel=&quot;nofollow&quot; target=&quot;_NEW&quot;&gt;\nhttp://ititli.com/kO&lt;/a&gt; &lt;a href=&quot;\nhttp://ititli.com/o9&quot; rel=&quot;nofollow&quot; target=&quot;_NEW&quot;&gt;\nhttp://ititli.com/o9&lt;/a&gt; &lt;a href=&quot;\nhttp://ititli.com/oX&quot; rel=&quot;nofollow&quot; target=&quot;_NEW&quot;&gt;\nhttp://ititli.com/oX&lt;/a&gt; &lt;a href=&quot;\nhttp://ititli.com/oq&quot; rel=&quot;nofollow&quot; target=&quot;_NEW&quot;&gt;\nhttp://ititli.com/oq&lt;/a&gt; &lt;a href=&quot;\nhttp://ititli.com/or&quot; rel=&quot;nofollow&quot; target=&quot;_NEW&quot;&gt;\nhttp://ititli.com/or&lt;/a&gt; &lt;a href=&quot;\nhttp://ititli.com/o1&quot; rel=&quot;nofollow&quot; target=&quot;_NEW&quot;&gt;\nhttp://ititli.com/o1&lt;/a&gt; &lt;a href=&quot;\nhttp://ititli.com/oT&quot; rel=&quot;nofollow&quot; target=&quot;_NEW&quot;&gt;\nhttp://ititli.com/oT&lt;/a&gt; &lt;a href=&quot;\nhttp://ititli.com/oW&quot; rel=&quot;nofollow&quot; target=&quot;_NEW&quot;&gt;\nhttp://ititli.com/oW&lt;/a&gt;\n\n----------------------------------------------------------------------------------------------------\n\n\nEncoder Notes: Looking For Early Access To Anything You Can Provide DVDScr, R5, DVDR, BluRay, Direct\nAudio, Music Releases and Seedboxes. If You Got anything to offer please contact us.\n\nSupport us by donating BC - 1FgwdzPsd1y25Gea8wP1qni35uGCtmkRCD","torrent":{"xt":"urn:btih:7b5010868c4c96f6cd9a2b3c4a9e75b43adcc35a","amp;dn":"True.Detective.S02E08.HDTV.480p.x264.AAC-VYTO+%5BP2PDL%5D","amp;tr":["udp%3A%2F%2Ftracker.openbittorrent.com%3A80","udp%3A%2F%2Fopen.demonii.com%3A1337","udp%3A%2F%2Ftracker.coppersurfer.tk%3A6969","udp%3A%2F%2Fexodus.desync.com%3A6969"],"infoHash":"7b5010868c4c96f6cd9a2b3c4a9e75b43adcc35a","infoHashBuffer":{"type":"Buffer","data":[123,80,16,134,140,76,150,246,205,154,43,60,74,158,117,180,58,220,195,90]},"announce":[],"urlList":[]}}